<?xml version="1.0" encoding="UTF-8"?><!DOCTYPE svg PUBLIC "-//W3C//DTD SVG 1.1//EN" "http://www.w3.org/Graphics/SVG/1.1/DTD/svg11.dtd"><svg version="1.1" xmlns="http://www.w3.org/2000/svg" width="160" height="160" viewBox="0 0 160 160"><g transform="scale(1,1) rotate(0 80,80)"><g><circle cx="80" cy="80" r="80" fill="#FFFFFF" style="fill-opacity:1"/></g><g><path fill="#FF0100" d="M80,0C35.817,0,0,35.817,0,80c0,44.184,35.817,80,80,80c44.184,0,80-35.816,80-80C160,35.817,124.184,0,80,0  z M80,155.5c-41.697,0-75.5-33.802-75.5-75.5C4.5,38.303,38.303,4.5,80,4.5c41.698,0,75.5,33.803,75.5,75.5  C155.5,121.698,121.698,155.5,80,155.5z"/><polygon fill="#FF0100" points="79.5,58.5 84.633,73.722 100.563,73.722 87.818,83.277 92.42,98.5 79.5,89.475 66.58,98.5 71.182,83.277 58.438,73.722 74.367,73.722" style="fill-opacity: 1;"/></g><g><g transform="rotate(-120 80,80)"><g transform="translate(72.2,8) scale(0.015234375000000001,0.0234375)"><g transform="scale(1,-1) translate(0,-820)"><path d="M798 165H683V350H763H804H938Q951 350 955 357Q958 363 951 371V371Q914 423 857 457Q845 464 837 455Q807 421 783 386Q779 380 772 377Q768 377 765 377H683V550H775H817H958Q971 550 975 557Q978 563 971 571V571Q931 625 872 660Q860 667 852 658Q821 624 796 586Q792 580 785 577Q781 577 778 577H683L684 706Q684 719 694 722Q719 729 719 746Q719 762 689 769Q631 779 579 784Q572 784 572 778Q572 774 573 766L572 -140Q572 -161 589 -172Q623 -188 657 -175Q682 -162 683 -135V138H795H837H978Q991 138 995 145Q998 151 991 159V159Q951 213 892 248Q880 255 872 246Q841 212 816 174Q812 168 805 165Q801 165 798 165V165V165ZM112 138H336V-140Q336 -161 353 -172Q387 -188 421 -175Q446 -162 447 -135L448 706Q448 719 458 722Q483 729 483 746Q483 762 453 769Q395 779 343 784Q336 784 336 778Q336 774 337 766L336 577H121H113L53 585Q41 589 43 582Q47 564 51 546Q52 539 61 542L128 550H336V373H145H137L77 381Q65 385 67 378Q71 360 75 342Q76 335 85 338L152 346H336V165H105H97L37 173Q25 177 27 170Q31 152 35 134Q36 127 45 130L112 138V138V139V138Z" fill="#FF0100"/></g></g></g><g transform="rotate(-100 80,80)"><g transform="translate(72.2,8) scale(0.015234375000000001,0.0234375)"><g transform="scale(1,-1) translate(0,-820)"><path d="M773 -67H588V302H679H720H854Q867 302 871 309Q874 315 867 323V323Q830 375 773 409Q761 416 753 407Q723 373 699 338Q695 332 688 329Q684 329 681 329H588V650H721H756H910V650Q923 650 927 657Q930 663 923 671V671Q881 726 820 763Q807 770 799 761Q768 724 740 687Q736 680 721 677H177H169L108 684Q95 687 97 680Q101 661 107 644Q108 637 118 641L177 650H477V-67H328V386Q328 396 335 397Q360 404 360 419Q360 429 339 438Q285 453 223 458Q216 459 216 454Q216 445 216 437V-67H117H109L48 -60Q35 -57 37 -64Q41 -83 47 -100Q48 -107 58 -103L117 -94H773H808H962V-94Q975 -94 979 -87Q982 -81 975 -73V-73Q933 -18 872 19Q859 26 851 17Q820 -20 792 -57Q788 -64 773 -67V-67V-67V-66V-67Z" fill="#FF0100"/></g></g></g><g transform="rotate(-80 80,80)"><g transform="translate(72.2,8) scale(0.015234375000000001,0.0234375)"><g transform="scale(1,-1) translate(0,-820)"><path d="M206 742Q231 726 249 697Q265 670 272 641Q276 619 294 606Q313 594 339 602Q366 611 371 640Q375 664 361 686Q345 714 308 735Q272 756 212 764Q202 767 200 758Q199 748 206 742V742V742ZM833 554Q817 488 784 421Q783 409 785 405Q789 402 802 406Q871 452 953 521Q960 525 968 525Q984 526 992 536Q995 546 983 557Q934 594 877 621Q868 625 860 621Q838 608 823 590Q817 584 807 581H685Q745 621 793 678Q806 691 817 692Q838 693 839 708Q840 724 813 734Q764 752 711 764Q702 765 701 755Q685 673 641 581H568V726Q568 736 575 737Q600 744 600 759Q600 769 579 778Q525 793 463 798Q456 799 456 794Q456 785 456 777V581H233H218L178 584Q177 600 173 615Q172 622 166 623Q162 623 160 616Q142 568 123 547Q104 525 74 512Q46 499 34 469Q24 441 38 418Q54 396 82 393Q112 392 136 411Q166 442 176 500Q180 525 180 550L233 554H833V554ZM452 154V-141Q452 -166 470 -176Q504 -192 538 -179Q563 -169 564 -141V154H722Q734 154 733 134V14Q733 -2 721 -10Q714 -14 701 -15Q691 -16 649 -11Q636 -10 631 -19Q628 -29 640 -34Q677 -38 699 -54Q721 -70 727 -109Q728 -122 736 -122Q769 -123 805 -104Q842 -82 844 -19V113Q844 129 857 132Q881 141 881 153Q881 166 870 177Q845 201 782 233Q764 240 757 230Q744 211 732 190Q728 183 713 181H564V290H637V278Q637 257 645 246Q654 234 677 234Q713 237 731 247Q747 257 748 277V401Q748 414 758 419Q779 428 779 440Q779 450 767 460Q721 493 670 511Q663 514 658 510Q645 497 632 480Q626 473 620 473H381Q324 504 275 519Q265 523 264 516Q265 512 265 509V276Q264 255 272 249Q285 239 307 239Q335 240 358 253Q374 265 375 290H452V181H289Q232 212 183 227Q173 231 172 224Q173 220 173 217V-72Q172 -93 180 -99Q193 -109 215 -109Q243 -108 266 -95Q284 -83 284 -56V154H452V154ZM376 317V446H626Q633 449 637 440V317H376V317V318V317Z" fill="#FF0100"/></g></g></g><g transform="rotate(-60 80,80)"><g transform="translate(72.2,8) scale(0.015234375000000001,0.0234375)"><g transform="scale(1,-1) translate(0,-820)"><path d="M555 676Q556 701 560 727Q561 737 570 740Q591 746 591 760Q591 772 568 778Q502 791 445 789Q439 789 439 778Q439 753 439 727Q439 592 430 499Q423 399 400 306Q378 206 327 116Q281 34 201 -40Q120 -110 31 -157Q22 -161 24 -169Q25 -175 36 -172Q151 -135 243 -77Q355 -2 419 101Q492 218 522 374Q529 425 537 484Q538 453 543 417Q558 285 596 183Q642 59 708 -29Q771 -111 865 -169Q875 -176 880 -168Q899 -135 928 -114Q956 -95 990 -96Q1000 -96 1002 -88Q1003 -79 993 -77Q896 -41 815 34Q724 119 664 228Q606 333 578 461Q556 555 555 666Q555 672 555 676V676V676V677V676Z" fill="#FF0100"/></g></g></g><g transform="rotate(-40 80,80)"><g transform="translate(72.2,8) scale(0.015234375000000001,0.0234375)"><g transform="scale(1,-1) translate(0,-820)"><path d="M178 749Q203 727 218 693Q231 660 234 628Q235 603 251 586Q270 570 297 574Q327 578 337 607Q344 632 334 659Q321 692 287 721Q251 749 188 770Q178 774 175 766Q171 756 178 749V749V749ZM559 474Q632 443 692 407Q762 364 800 322Q825 291 849 290Q876 289 893 308Q908 327 907 356Q903 384 886 402Q846 439 762 463Q662 493 559 504V538H772H807H954V538Q967 538 971 545Q974 551 967 559V559Q927 613 868 648Q856 655 848 646Q817 612 791 574Q787 568 779 565Q775 565 772 565H683Q708 580 736 603Q776 637 812 685Q819 695 829 697Q851 698 853 711Q854 724 835 736Q789 763 743 780Q733 783 729 775Q726 766 722 753Q712 707 689 651Q668 602 643 565H559L560 718Q560 731 570 734Q595 741 595 758Q595 774 565 781Q507 791 455 796Q448 796 448 790Q448 786 449 778L448 565H133H125L64 572Q51 575 53 568Q57 549 63 532Q64 525 74 529L133 538H402Q360 469 264 408Q161 344 66 314Q57 308 58 301Q61 294 72 297Q196 316 330 379Q397 413 448 452V332Q448 311 465 300Q499 284 533 297Q558 310 559 337V474V474ZM530 115Q549 75 581 25Q614 -24 651 -59Q693 -99 751 -127Q805 -152 880 -171Q893 -172 896 -163Q900 -132 916 -101Q934 -68 972 -45Q981 -41 978 -35Q975 -29 966 -30Q924 -37 858 -30Q797 -24 732 -2Q668 20 620 59Q575 96 546 138H781H816H970V138Q983 138 987 145Q990 151 983 159V159Q941 214 880 251Q867 258 859 249Q828 212 800 175Q796 168 781 165H544Q548 196 554 227Q555 237 562 239Q583 246 583 259Q583 272 558 277Q506 286 451 288Q444 288 443 280Q443 264 443 242Q442 203 436 165H113H105L44 172Q31 175 33 168Q37 149 43 132Q44 125 54 129L113 138H431Q421 102 408 66Q371 -25 263 -86Q157 -141 51 -162Q44 -163 43 -171Q43 -178 51 -180Q184 -170 309 -124Q441 -69 496 31Q515 71 530 115V115V115V116V115Z" fill="#FF0100"/></g></g></g><g transform="rotate(-20 80,80)"><g transform="translate(72.2,8) scale(0.015234375000000001,0.0234375)"><g transform="scale(1,-1) translate(0,-820)"><path d="M620 488L629 490H831Q838 493 841 485V72Q841 59 848 52Q857 42 878 41Q908 41 925 52Q943 64 944 84V461Q944 468 952 472Q973 479 975 492Q976 504 962 515Q931 540 872 561Q860 565 850 553Q843 546 823 523Q817 516 803 517H697Q712 530 729 550Q756 581 775 617Q787 642 796 666H832H853H973Q985 666 988 674Q991 681 983 693Q953 739 915 769Q900 779 890 765Q865 729 848 702Q844 696 832 693H573H565L501 700Q491 701 492 696Q496 678 500 661Q501 655 508 658L573 666H686Q685 630 680 592Q677 552 671 517H629H623Q571 545 526 559Q516 562 516 556Q517 552 517 550V405Q516 406 514 408Q468 442 413 464Q406 468 398 464Q379 451 364 434Q358 428 349 425H300Q307 432 314 444Q329 468 321 496Q314 520 291 538Q355 578 423 632Q456 656 463 656Q485 657 487 670Q490 680 473 696Q431 733 391 756Q387 760 380 757Q361 741 349 724Q342 715 334 713H113L45 719Q35 720 35 716Q39 697 44 678Q45 674 58 678L113 686H339Q305 616 262 559Q261 560 259 562Q202 592 128 612Q118 613 116 606Q115 599 124 594Q152 576 183 535Q208 501 218 462Q222 438 233 425H97H89L29 433Q17 437 19 428Q23 410 28 390Q29 386 42 390L97 398H201V-17Q201 -45 172 -43Q135 -43 85 -38Q76 -37 75 -45Q74 -52 83 -57Q123 -73 144 -97Q160 -119 160 -156Q160 -166 172 -166Q200 -166 236 -156Q279 -144 296 -114Q312 -89 312 -40V398H376Q363 328 336 256Q335 246 338 242Q342 239 354 244Q415 296 490 372Q496 376 503 377Q510 378 517 381V73Q516 54 523 48Q536 39 556 39Q583 40 604 52Q620 62 620 89V488V488ZM751 52Q775 115 778 191Q782 279 782 344V409Q781 418 789 419Q808 423 808 437Q808 450 782 454Q733 461 688 462Q684 462 683 456Q683 449 683 441V409V344Q683 286 683 214Q683 127 660 52Q630 -23 562 -75Q493 -123 408 -151Q401 -152 401 -160Q402 -164 410 -165Q504 -152 591 -112Q687 -69 734 15Q738 24 742 32Q790 -7 824 -47Q861 -90 877 -126Q892 -160 912 -168Q934 -175 956 -163Q974 -150 981 -124Q985 -97 974 -77Q952 -44 897 -13Q828 27 751 52V52V52V53V52Z" fill="#FF0100"/></g></g></g><g transform="rotate(0 80,80)"><g transform="translate(72.2,8) scale(0.015234375000000001,0.0234375)"><g transform="scale(1,-1) translate(0,-820)"><path d="M148 90Q182 74 202 48Q218 21 222 -15Q223 -25 228 -24Q279 -25 319 -6Q364 15 385 57Q409 100 410 156Q411 205 389 263Q371 306 334 350Q297 396 252 428Q239 438 246 447Q300 517 343 590Q367 627 380 649Q389 667 402 669Q421 670 424 684Q425 694 413 707Q377 744 333 769Q326 773 319 769Q298 751 286 733Q282 726 275 725H152Q97 756 49 772Q42 773 39 772Q38 771 37 764V-143Q37 -162 46 -171Q56 -181 78 -182Q114 -182 133 -166Q148 -154 148 -121V90V90ZM199 423Q217 401 245 364Q273 321 286 280Q302 228 301 188Q300 160 293 146Q283 133 274 123Q259 102 219 103Q185 104 148 114V698H287Q262 601 230 526Q202 460 195 447Q189 437 199 423V423V423ZM740 -29Q727 -45 704 -51Q670 -58 616 -44Q600 -40 596 -52Q592 -62 609 -70Q658 -94 673 -116Q689 -141 691 -173Q691 -179 700 -180Q737 -181 763 -170Q794 -155 822 -128Q843 -107 858 -64Q877 -9 883 66Q893 193 893 307Q893 329 907 338Q928 351 929 363Q930 378 910 391Q874 413 828 435Q807 444 797 433Q781 418 770 403Q763 393 749 393H629H626Q629 462 631 550H780H815H962V550Q975 550 979 557Q982 563 975 571V571Q935 625 876 660Q864 667 856 658Q825 624 799 586Q795 580 787 577Q783 577 780 577H708Q720 586 727 603Q737 631 727 662Q714 701 675 736Q636 772 565 797Q555 801 550 793Q546 783 554 776Q582 749 600 709Q615 672 617 633Q618 603 638 583Q641 580 645 577H425H417L356 584Q343 587 345 580Q349 561 355 544Q356 537 366 541L425 550H520Q520 336 510 246Q498 158 461 77Q425 -5 357 -73Q296 -130 236 -162Q227 -166 229 -173Q230 -179 241 -177Q331 -161 415 -102Q496 -45 549 51Q592 136 610 234Q619 283 624 365L629 366H755Q771 367 775 362Q779 356 781 333Q782 225 776 141Q769 51 759 10Q753 -15 740 -29V-29V-29V-28V-29Z" fill="#FF0100"/></g></g></g><g transform="rotate(20 80,80)"><g transform="translate(72.2,8) scale(0.015234375000000001,0.0234375)"><g transform="scale(1,-1) translate(0,-820)"><path d="M547 515Q516 436 467 360Q415 284 350 224Q346 220 348 215Q349 212 357 214Q433 248 509 313Q585 380 637 449Q641 455 648 454Q669 453 674 464Q677 477 659 488Q613 516 559 535Q555 536 552 531Q549 522 547 515V515V515ZM727 513Q720 517 714 512Q710 505 717 498Q777 440 817 383Q856 328 870 284Q882 248 902 237Q924 227 948 237Q967 249 977 275Q984 302 976 324Q957 364 898 409Q819 470 727 513V513V513ZM800 -119H728V182H750H890V182Q903 182 907 189Q910 195 903 203V203Q866 255 809 289Q797 296 789 287Q759 253 734 218Q730 212 722 209Q718 209 715 209H509H501L440 216Q427 219 429 212Q433 193 439 176Q440 169 450 173L509 182H617V-119H437H429L368 -112Q355 -109 357 -116Q361 -135 367 -152Q368 -159 378 -155L437 -146H800H835H982V-146Q995 -146 999 -139Q1002 -133 995 -125V-125Q955 -71 896 -36Q884 -29 876 -38Q845 -72 819 -110Q815 -116 807 -119Q803 -119 800 -119V-119V-119ZM257 263Q327 312 379 369Q383 375 379 379Q375 383 369 379Q315 348 257 325V502H271H362Q358 480 369 462Q385 443 412 441Q439 441 461 461Q489 494 496 550Q497 571 498 590L545 594H845Q838 543 820 489Q819 477 821 473Q825 470 838 474Q896 508 966 562Q973 566 980 566Q998 567 1004 577Q1007 587 995 598Q946 635 889 661Q880 665 872 661Q850 648 835 630Q828 624 818 621H718Q736 628 744 652Q750 674 741 697Q728 725 696 750Q665 775 608 790Q598 794 595 786Q591 776 599 769Q618 750 632 721Q642 693 645 665Q646 643 659 629Q665 625 671 621H545H529L497 623Q494 644 489 664Q488 671 482 672Q478 671 477 664Q464 615 446 591Q427 567 399 551Q383 544 373 530Q352 567 323 591Q311 601 303 588Q279 560 264 536Q261 532 257 529V730Q257 739 265 740Q287 747 287 761Q287 776 259 781Q204 791 158 794Q151 795 151 785Q150 776 151 770L150 529H105H97L33 536Q23 537 24 532Q28 514 32 497Q33 491 40 494L105 502H150V289Q102 276 70 272Q54 269 29 265Q20 264 24 254Q43 199 71 147Q81 131 94 135Q104 139 103 157Q102 167 111 172Q130 182 150 194V-40Q150 -50 142 -59Q135 -66 122 -66Q88 -66 53 -65Q46 -65 44 -74Q43 -83 53 -85Q90 -104 105 -128Q117 -147 114 -171Q114 -175 123 -177Q186 -176 222 -146Q256 -118 257 -79V263V263V264V263Z" fill="#FF0100"/></g></g></g><g transform="rotate(40 80,80)"><g transform="translate(72.2,8) scale(0.015234375000000001,0.0234375)"><g transform="scale(1,-1) translate(0,-820)"><path d="M280 254V-132Q280 -153 297 -164Q331 -180 365 -167Q390 -154 391 -127V254H458Q470 254 469 234V66Q469 50 457 42Q454 39 448 38Q442 37 421 37Q408 38 403 30Q399 20 410 15Q438 5 453 -11Q468 -27 467 -59Q466 -69 472 -70Q505 -71 541 -52Q578 -30 580 33V213Q580 229 593 232Q617 241 617 253Q617 266 606 277Q581 301 518 333Q500 340 493 330Q480 311 468 290Q464 283 449 281H391V386H427H462H602V386Q615 386 619 393Q622 399 615 407V407Q578 459 521 493Q509 500 501 491Q471 457 446 422Q442 416 434 413Q430 413 427 413H391V562H402H443H570Q583 562 587 569Q590 575 583 583V583Q547 632 493 666Q483 673 474 664Q446 631 421 598Q417 592 404 589H391L392 706Q392 719 402 722Q427 729 427 746Q427 762 397 769Q339 779 287 784Q280 784 280 778Q280 774 281 766L280 589H204Q223 619 239 647Q242 654 251 655Q267 656 270 667Q271 677 251 687Q197 712 141 725Q134 726 133 719Q132 709 130 696Q126 644 105 570Q89 506 58 449Q55 445 58 439Q62 436 68 440Q110 471 160 530Q173 546 184 562H280V413H125H117L56 420Q43 423 45 416Q49 397 55 380Q56 373 66 377L125 386H280V281H213Q156 312 107 327Q97 331 96 324Q97 320 97 317V-36Q96 -57 104 -63Q117 -73 139 -73Q167 -72 190 -59Q208 -47 208 -20V253L209 254H280V254ZM645 610L644 84Q644 63 661 52Q695 36 729 49Q754 62 755 89L756 550Q756 563 766 566Q791 573 791 590Q791 606 761 613Q703 623 651 628Q644 628 644 622Q644 618 645 610V610V610ZM825 757L824 -30Q824 -40 816 -49Q809 -56 796 -55Q760 -54 722 -52Q713 -52 712 -62Q711 -71 722 -74Q762 -92 778 -117Q791 -138 790 -163Q789 -167 799 -169Q863 -168 899 -138Q935 -108 935 -70V716Q935 725 943 727Q965 734 966 748Q966 764 937 769Q880 779 832 782Q825 783 825 773Q824 764 825 757V757V757V758V757Z" fill="#FF0100"/></g></g></g><g transform="rotate(60 80,80)"><g transform="translate(72.2,8) scale(0.015234375000000001,0.0234375)"><g transform="scale(1,-1) translate(0,-820)"><path d="M724 314V-125Q724 -150 742 -160Q776 -176 810 -163Q835 -153 836 -125V314H870H974V314Q987 314 991 321Q994 327 987 335V335Q959 377 914 405Q905 411 898 404Q873 376 851 348Q847 345 843 341Q839 341 836 341V678H938V678Q951 678 955 685Q958 691 951 699V699Q914 751 857 785Q845 792 837 783Q807 749 782 714Q778 708 770 705Q766 705 763 705H497H489L428 712Q415 715 417 708Q421 689 427 672Q428 665 438 669L497 678H532Q532 465 526 341H481H473L412 348Q399 351 401 344Q405 325 411 308Q412 301 422 305L481 314H525Q522 247 517 209Q501 97 451 7Q402 -81 321 -148Q314 -154 317 -159Q318 -163 329 -160Q407 -126 491 -45Q581 43 615 187Q624 239 630 314H724V314ZM724 341H632Q642 476 643 678H724V341V341ZM216 34H273V-21Q273 -40 280 -50Q289 -60 310 -61Q344 -60 360 -50Q375 -40 376 -21V337Q376 350 386 354Q405 363 405 373Q405 383 393 392Q351 423 303 439Q296 442 292 438Q279 426 267 412Q263 405 256 405H201H197Q233 507 251 638H265H398V638Q411 638 415 645Q418 651 411 659V659Q375 708 321 742Q311 749 302 740Q272 707 248 673Q244 669 237 665Q233 665 230 665H101H93L32 672Q19 675 21 668Q25 649 31 632Q32 625 42 629L101 638H142Q136 475 105 365Q74 250 22 171Q15 161 20 155Q24 151 36 157Q75 190 112 241V-60Q112 -84 129 -93Q160 -109 192 -96Q214 -86 216 -60V34V34ZM216 61V378H262Q269 381 273 373V61H216V61V62V61Z" fill="#FF0100"/></g></g></g><g transform="rotate(80 80,80)"><g transform="translate(72.2,8) scale(0.015234375000000001,0.0234375)"><g transform="scale(1,-1) translate(0,-820)"><path d="M336 266Q333 224 330 186Q320 93 282 25Q245 -42 177 -89Q113 -135 45 -159Q38 -160 37 -168Q38 -174 47 -173Q131 -164 220 -126Q317 -81 374 -4Q420 71 436 176Q440 219 445 266H625V-58Q625 -109 658 -135Q692 -162 799 -162Q869 -161 904 -155Q940 -151 967 -136Q992 -123 993 -95Q993 -64 966 -52Q956 -45 951 -35Q945 -22 944 -1Q944 17 943 42Q942 52 933 54Q924 54 922 43Q915 12 906 -18Q899 -43 882 -49Q863 -55 790 -55Q771 -55 751 -46Q736 -40 736 -24V237Q735 246 745 249Q760 256 761 265Q761 274 750 283Q711 316 672 335Q663 339 656 335Q634 322 619 305Q610 295 601 293H446Q449 336 449 380Q449 387 458 390Q480 397 480 410Q480 423 454 429Q399 438 345 440Q339 441 339 434Q339 404 339 386Q339 337 337 293H169L101 299Q91 300 92 293Q96 277 100 259Q101 255 114 258L169 266H336V266ZM346 584Q310 538 242 487Q164 426 73 373Q63 369 66 361Q67 355 81 358Q132 374 227 414Q342 466 431 516Q441 523 451 524Q475 525 478 538Q479 551 458 562Q413 583 361 593Q354 594 346 584V584V584ZM542 649Q560 658 567 681Q571 702 562 722Q549 747 519 769Q489 791 436 802Q426 806 423 798Q420 788 427 781Q446 765 458 738Q468 713 470 688Q471 669 483 655Q487 652 492 649H245H229L187 652Q186 665 184 678Q183 687 178 687Q174 687 171 680Q152 628 130 605Q108 581 76 567Q46 555 35 525Q25 497 38 474Q53 452 81 448Q111 447 136 466Q169 497 182 557Q188 588 189 618L245 622H824Q806 567 776 508Q680 557 578 586Q568 587 565 581Q562 575 571 570Q649 521 705 468Q760 419 786 374Q804 343 825 336Q849 330 869 345Q885 360 889 386Q890 413 879 432Q854 465 804 493Q867 532 943 586Q950 590 957 590Q975 589 982 599Q986 609 974 621Q928 660 870 687Q863 691 854 688Q832 675 816 658Q810 652 799 649H542V649V650V649Z" fill="#FF0100"/></g></g></g><g transform="rotate(100 80,80)"><g transform="translate(72.2,8) scale(0.015234375000000001,0.0234375)"><g transform="scale(1,-1) translate(0,-820)"><path d="M452 214V-144Q452 -165 469 -176Q503 -192 537 -179Q562 -166 563 -139V214H793V186Q793 165 801 154Q810 142 833 142Q869 145 887 155Q903 165 904 185V469Q904 482 914 487Q935 496 935 508Q935 518 923 528Q877 561 826 579Q819 582 814 578Q801 565 788 548Q782 541 776 541H563L564 710Q564 723 574 726Q599 733 599 750Q599 766 569 773Q511 783 459 788Q452 788 452 782Q452 778 453 770L452 541H237H233Q176 572 127 587Q117 591 116 584Q117 580 117 577V176Q116 155 124 149Q137 139 159 139Q187 140 210 153Q228 165 228 192V214H452V214ZM452 241H228V512L237 514H452V241V241ZM563 514H782Q789 517 793 508V241H563V514V514V515V514Z" fill="#FF0100"/></g></g></g><g transform="rotate(120 80,80)"><g transform="translate(72.2,8) scale(0.015234375000000001,0.0234375)"><g transform="scale(1,-1) translate(0,-820)"><path d="M178 459Q174 354 148 301Q121 246 72 203Q47 184 45 152Q44 121 61 103Q83 87 111 90Q139 97 158 122Q203 179 211 272Q220 369 191 461Q188 468 183 467Q179 467 178 459V459V459ZM300 478L301 -22Q301 -50 313 -78Q328 -109 369 -127Q418 -146 555 -148Q663 -148 714 -144Q769 -140 814 -119Q851 -103 851 -70Q851 -39 819 -24Q800 -9 797 21Q794 55 793 91Q792 101 783 102Q773 102 771 93Q764 56 753 21Q743 -13 724 -24Q711 -30 690 -34Q662 -37 549 -37Q462 -36 441 -32Q425 -28 418 -17Q411 -5 412 6V451Q412 463 423 467Q442 474 443 489Q442 502 414 509Q359 519 311 523Q301 522 301 515Q300 496 300 478V478V478ZM407 744Q462 705 502 640Q538 579 551 512Q561 461 598 432Q617 416 646 421Q676 427 685 458Q701 504 683 554Q661 615 597 671Q533 726 417 766Q407 770 403 761Q400 751 407 744V744V744ZM762 476Q807 427 831 357Q852 290 851 225Q850 173 879 138Q895 119 923 118Q954 118 969 145Q994 185 987 237Q978 301 929 367Q880 434 776 495Q766 502 761 494Q757 484 762 476V476V476V477V476Z" fill="#FF0100"/></g></g></g></g><g><g transform="translate(48.8,113.52) scale(0.012187500000000002,0.018750000000000003)"><g transform="scale(1,-1) translate(0,-820)"><path d="M685 630Q688 676 692 727Q693 737 702 740Q723 746 723 760Q723 772 700 778Q634 791 577 789Q571 789 571 778Q571 753 571 727Q571 591 564 499Q558 399 543 304Q527 204 489 114Q455 32 398 -43Q340 -113 273 -161Q266 -167 267 -173Q270 -177 280 -175Q370 -138 443 -79Q531 -6 581 99Q639 216 662 373Q663 389 666 407Q666 403 667 398Q677 235 700 144Q725 44 765 -32Q811 -119 859 -170Q869 -182 878 -168Q896 -140 932 -114Q963 -93 991 -91Q1003 -91 1003 -85Q1004 -81 996 -75Q912 -23 851 54Q793 123 746 237Q712 316 696 424Q683 503 685 617Q685 624 685 630V630V630ZM134 756Q165 729 183 688Q199 649 203 609Q206 578 226 558Q245 542 273 546Q304 550 314 580Q324 608 314 641Q299 681 259 716Q219 752 145 777Q135 781 130 773Q127 763 134 756V756V756ZM165 22Q143 12 147 2Q175 -62 193 -105Q203 -130 222 -124Q240 -117 238 -93Q237 -78 246 -69Q346 24 427 119Q437 132 431 140Q424 144 416 138Q334 92 276 65V363Q276 372 282 373Q301 380 302 392Q302 402 292 410Q252 443 208 466Q201 469 196 466Q180 451 166 434Q162 427 153 425H105L37 431Q25 432 27 426Q31 408 36 392Q37 386 50 390L105 398H165V22V22V23V22Z" fill="#FF0100"/></g></g><g transform="translate(61.28,113.52) scale(0.012187500000000002,0.018750000000000003)"><g transform="scale(1,-1) translate(0,-820)"><path d="M135 756Q166 731 187 690Q205 651 210 611Q213 580 234 561Q253 545 282 549Q312 555 321 585Q331 615 319 646Q303 686 262 720Q219 754 145 778Q135 782 131 773Q127 763 135 756V756V756ZM169 5Q153 -4 156 -12Q187 -75 208 -115Q221 -140 238 -132Q254 -125 252 -101Q249 -86 259 -77Q332 8 392 92Q399 105 395 113Q386 116 379 110Q322 76 280 53V363Q280 372 286 373Q305 380 306 392Q306 402 296 410Q256 443 212 466Q205 469 200 466Q184 451 170 434Q166 427 157 425H105L37 431Q25 432 27 426Q31 408 36 392Q37 386 50 390L105 398H169V5V5ZM784 -99H732V274H777H819H909V274Q921 274 924 282Q928 291 919 302Q891 347 854 374Q841 384 830 371Q805 337 789 309Q785 305 773 301H732V650H764H799H946V650Q959 650 963 657Q966 663 959 671V671Q919 725 860 760Q848 767 840 758Q809 724 783 686Q779 680 771 677Q767 677 764 677H465H457L396 684Q383 687 385 680Q389 661 395 644Q396 637 406 641L465 650H621V-99H526V372Q526 382 533 383Q557 390 557 404Q557 414 537 422Q485 437 425 442Q418 442 418 438Q418 429 418 421V-99H385H377L316 -92Q303 -89 305 -96Q309 -115 315 -132Q316 -139 326 -135L385 -126H784H819H966V-126Q979 -126 983 -119Q986 -113 979 -105V-105Q939 -51 880 -16Q868 -9 860 -18Q829 -52 803 -90Q799 -96 791 -99Q787 -99 784 -99V-99V-99V-98V-99Z" fill="#FF0100"/></g></g><g transform="translate(73.76,113.52) scale(0.012187500000000002,0.018750000000000003)"><g transform="scale(1,-1) translate(0,-820)"><path d="M560 32Q424 81 280 103Q270 104 268 96Q267 89 276 84Q400 35 493 -24Q584 -79 632 -135Q657 -166 681 -169Q706 -170 725 -152Q740 -133 740 -105Q737 -75 720 -58Q678 -12 592 20Q692 98 812 203Q819 207 826 206Q842 206 850 215Q854 225 843 236Q798 273 744 300Q737 304 728 301Q707 289 692 273Q686 269 676 265H409Q433 329 457 394H777H812H966V394Q979 394 983 401Q986 407 979 415V415Q937 470 876 507Q863 514 855 505Q824 468 796 431Q792 424 777 421H466Q490 491 513 562H689H724H878V562Q891 562 895 569Q898 575 891 583V583Q849 638 788 675Q775 682 767 673Q736 636 708 599Q704 592 689 589H522Q534 628 546 666Q555 694 570 697Q598 698 600 717Q601 733 555 755Q503 776 466 788Q456 789 455 784Q455 783 454 780Q444 707 407 589H193H185L124 596Q111 599 113 592Q117 573 123 556Q124 549 134 553L193 562H398Q377 499 349 421H121H113L52 428Q39 431 41 424Q45 405 51 388Q52 381 62 385L121 394H339Q327 366 316 332L252 285Q245 281 252 271Q265 253 279 234Q279 234 280 232Q280 232 282 230Q295 212 310 192Q319 179 327 186L391 238H699Q641 133 560 32V32V32V33V32Z" fill="#FF0100"/></g></g><g transform="translate(86.24,113.52) scale(0.012187500000000002,0.018750000000000003)"><g transform="scale(1,-1) translate(0,-820)"><path d="M460 222V-121Q460 -146 478 -156Q512 -172 546 -159Q571 -149 572 -121V222H777V-22Q777 -35 767 -47Q760 -54 743 -55Q727 -56 679 -51Q664 -50 661 -59Q660 -71 670 -75Q710 -82 733 -113Q752 -140 755 -164Q756 -174 764 -173Q806 -174 847 -150Q887 -125 888 -65V651Q888 669 902 677Q932 687 934 702Q935 715 922 729Q892 754 823 787Q811 793 803 784Q790 768 771 742Q764 735 747 733H277Q216 764 169 781Q162 784 161 772Q161 738 161 690V536Q161 341 154 227Q147 103 127 8Q109 -79 79 -152Q73 -159 78 -166Q82 -170 93 -165Q145 -117 186 -35Q234 65 252 199Q253 211 254 222H460V222ZM460 249H257Q267 351 271 462H460V249V249ZM572 462H777V249H572V462V462ZM460 489H271Q272 513 272 536V690Q272 697 272 706H460V489V489ZM572 706H767Q776 707 777 695V489H572V706V706V707V706Z" fill="#FF0100"/></g></g><g transform="translate(98.72,113.52) scale(0.012187500000000002,0.018750000000000003)"><g transform="scale(1,-1) translate(0,-820)"><path d="M718 661H553Q563 671 568 687Q572 708 561 728Q548 753 517 773Q486 792 433 803Q423 807 419 797Q416 787 424 780Q443 764 455 738Q465 714 468 689Q469 673 479 661H185H177L116 668Q103 671 105 664Q109 645 115 628Q116 621 126 625L185 634H718H753H886V634Q899 634 903 641Q906 647 899 655V655Q863 704 809 738Q799 745 790 736Q760 703 736 669Q732 665 725 661Q721 661 718 661V661V661ZM774 493H636Q670 514 703 543Q716 556 726 557Q747 560 748 573Q749 589 722 598Q676 614 624 626Q615 627 614 617Q607 559 585 493H418Q425 502 429 513Q433 532 424 552Q411 577 383 596Q355 615 305 626Q295 630 291 621Q287 611 295 604Q311 588 321 564Q330 542 330 518Q330 505 338 493H133H125L64 500Q51 503 53 496Q57 477 63 460Q64 453 74 457L133 466H774H809H942V466Q955 466 959 473Q962 479 955 487V487Q919 536 865 570Q855 577 846 568Q816 535 792 501Q788 497 781 493Q777 493 774 493V493V493ZM452 18V-133Q452 -158 470 -168Q504 -184 538 -171Q563 -161 564 -133V18H783H818H958V18Q971 18 975 25Q978 31 971 39V39Q934 91 877 125Q865 132 857 123Q827 89 802 54Q798 48 790 45Q786 45 783 45H564V146H701Q701 125 709 114Q718 102 741 102Q777 105 795 115Q811 125 812 145V321Q812 334 822 339Q843 348 843 360Q843 370 831 380Q785 413 734 431Q727 434 722 430Q709 417 696 400Q690 393 684 393H318Q266 421 219 435Q209 439 208 432Q209 428 209 425V124Q208 103 216 97Q229 87 251 87Q279 88 302 101Q320 113 320 140V146H452V45H121H113L52 52Q39 55 41 48Q45 29 51 12Q52 5 62 9L121 18H452V18ZM320 173V254H701V173H320V173ZM320 281V366H690Q697 369 701 360V281H320V281V282V281Z" fill="#FF0100"/></g></g></g><g><g transform="rotate(9.5 80,80)"><g transform="translate(77.5,144) scale(0.009765625,0.009765625)"><g transform="scale(1,-1) translate(0,-820)"><path d="M400 -42L437 142H390Q374 69 353 50Q332 34 306 33H145Q163 96 208 146Q305 260 358 322Q428 407 429 507Q429 589 380 643Q334 695 244 695Q172 695 122 636Q79 584 79 521Q79 487 97 464Q115 448 138 448Q156 448 175 464Q191 479 192 504Q192 525 179 545Q169 564 169 583Q169 595 183 616Q205 647 244 648Q277 648 301 620Q335 580 335 507Q335 395 273 317Q218 247 155 169Q85 79 84 -42H131H306H400V-42V-41V-42Z" fill="#FF0100"/></g></g></g><g transform="rotate(3.166666666666667 80,80)"><g transform="translate(77.5,144) scale(0.009765625,0.009765625)"><g transform="scale(1,-1) translate(0,-820)"><path d="M440 158Q440 273 364 321Q348 333 326 340Q347 353 364 374Q418 438 418 530Q418 600 374 647Q328 695 253 695Q189 695 138 652Q89 609 89 552Q89 530 102 515Q115 502 137 502Q153 502 167 516Q182 532 182 552Q182 565 174 577Q168 587 168 601Q168 616 189 631Q213 647 253 648Q284 648 305 615Q324 587 325 530Q325 452 296 404Q269 359 207 359Q194 360 182 353Q173 347 172 336Q173 326 182 319Q192 312 207 312Q271 312 306 279Q346 240 347 158Q347 67 311 27Q283 -7 245 -7Q197 -7 178 10Q159 26 158 46Q158 56 165 66Q172 76 172 88Q172 109 157 126Q144 142 124 142Q103 142 86 127Q70 112 69 88Q69 43 112 -2Q163 -54 245 -54Q327 -54 380 2Q440 63 440 158V158V158V159V158Z" fill="#FF0100"/></g></g></g><g transform="rotate(-3.166666666666666 80,80)"><g transform="translate(77.5,144) scale(0.009765625,0.009765625)"><g transform="scale(1,-1) translate(0,-820)"><path d="M440 158Q440 273 364 321Q348 333 326 340Q347 353 364 374Q418 438 418 530Q418 600 374 647Q328 695 253 695Q189 695 138 652Q89 609 89 552Q89 530 102 515Q115 502 137 502Q153 502 167 516Q182 532 182 552Q182 565 174 577Q168 587 168 601Q168 616 189 631Q213 647 253 648Q284 648 305 615Q324 587 325 530Q325 452 296 404Q269 359 207 359Q194 360 182 353Q173 347 172 336Q173 326 182 319Q192 312 207 312Q271 312 306 279Q346 240 347 158Q347 67 311 27Q283 -7 245 -7Q197 -7 178 10Q159 26 158 46Q158 56 165 66Q172 76 172 88Q172 109 157 126Q144 142 124 142Q103 142 86 127Q70 112 69 88Q69 43 112 -2Q163 -54 245 -54Q327 -54 380 2Q440 63 440 158V158V158V159V158Z" fill="#FF0100"/></g></g></g><g transform="rotate(-9.5 80,80)"><g transform="translate(77.5,144) scale(0.009765625,0.009765625)"><g transform="scale(1,-1) translate(0,-820)"><path d="M440 158Q440 273 364 321Q348 333 326 340Q347 353 364 374Q418 438 418 530Q418 600 374 647Q328 695 253 695Q189 695 138 652Q89 609 89 552Q89 530 102 515Q115 502 137 502Q153 502 167 516Q182 532 182 552Q182 565 174 577Q168 587 168 601Q168 616 189 631Q213 647 253 648Q284 648 305 615Q324 587 325 530Q325 452 296 404Q269 359 207 359Q194 360 182 353Q173 347 172 336Q173 326 182 319Q192 312 207 312Q271 312 306 279Q346 240 347 158Q347 67 311 27Q283 -7 245 -7Q197 -7 178 10Q159 26 158 46Q158 56 165 66Q172 76 172 88Q172 109 157 126Q144 142 124 142Q103 142 86 127Q70 112 69 88Q69 43 112 -2Q163 -54 245 -54Q327 -54 380 2Q440 63 440 158V158V158V159V158Z" fill="#FF0100"/></g></g></g></g></g></svg>